<svg width="46" height="36" viewBox="0 0 46 36" fill="none" xmlns="http://www.w3.org/2000/svg">
<path d="M15.4688 17.9453C15.4688 17.5547 15.4922 17.1641 15.5391 16.7734C15.6016 16.3828 15.6641 16 15.7266 15.625C15.8047 15.2344 15.8672 14.8438 15.9141 14.4531C15.9766 14.0469 16.0078 13.6406 16.0078 13.2344C15.4922 13.2344 15.0469 13.2578 14.6719 13.3047C14.2969 13.3516 13.9297 13.3984 13.5703 13.4453C13.2109 13.4922 12.8281 13.5312 12.4219 13.5625C12.0156 13.5781 11.5234 13.5703 10.9453 13.5391C10.5234 14.0078 10.0391 14.5078 9.49219 15.0391C8.96094 15.5703 8.39062 16.0625 7.78125 16.5156C7.17188 16.9688 6.53125 17.3516 5.85938 17.6641C5.1875 17.9609 4.50781 18.1094 3.82031 18.1094C3.35156 18.1094 2.89844 18.0312 2.46094 17.875C2.03906 17.7188 1.66406 17.5 1.33594 17.2188C1.00781 16.9375 0.75 16.6016 0.5625 16.2109C0.375 15.8047 0.28125 15.3594 0.28125 14.875C0.28125 14.625 0.320312 14.4375 0.398438 14.3125C0.492188 14.1719 0.679688 14.1016 0.960938 14.1016C1.10156 14.1016 1.22656 14.2344 1.33594 14.5C1.44531 14.75 1.58594 15.0391 1.75781 15.3672C1.94531 15.6797 2.17969 15.9688 2.46094 16.2344C2.74219 16.4844 3.125 16.6094 3.60938 16.6094C4.20312 16.6094 4.78125 16.5 5.34375 16.2812C5.92188 16.0469 6.46875 15.7578 6.98438 15.4141C7.51562 15.0547 8.00781 14.6562 8.46094 14.2188C8.92969 13.7812 9.35156 13.3516 9.72656 12.9297C9.67969 12.5391 9.53906 12.25 9.30469 12.0625C9.07031 11.875 8.82031 11.6875 8.55469 11.5C8.30469 11.3125 8.07812 11.0625 7.875 10.75C7.67188 10.4375 7.57031 9.94531 7.57031 9.27344C7.57031 8.32031 7.85938 7.57812 8.4375 7.04688C9.01562 6.5 9.80469 6.22656 10.8047 6.22656C11.1016 6.22656 11.3906 6.25781 11.6719 6.32031C11.9688 6.38281 12.2656 6.46094 12.5625 6.55469C12.8594 6.63281 13.1484 6.70312 13.4297 6.76562C13.7266 6.82812 14.0234 6.85938 14.3203 6.85938C14.5078 6.85938 14.6562 6.83594 14.7656 6.78906C14.8906 6.74219 15 6.67188 15.0938 6.57812C15.1875 6.48438 15.2891 6.35938 15.3984 6.20312C15.5078 6.04688 15.6484 5.85938 15.8203 5.64062C15.9141 5.51562 16.0547 5.32031 16.2422 5.05469C16.4453 4.77344 16.6641 4.46875 16.8984 4.14062C17.1328 3.79688 17.3828 3.4375 17.6484 3.0625C17.9141 2.6875 18.1641 2.32812 18.3984 1.98438C18.6328 1.64062 18.8438 1.33594 19.0312 1.07031C19.2188 0.804687 19.3516 0.601562 19.4297 0.460938C19.6016 0.320312 19.7578 0.234375 19.8984 0.203125C20.0391 0.15625 20.2031 0.132812 20.3906 0.132812C20.5781 0.132812 20.7188 0.203125 20.8125 0.34375C20.9062 0.46875 20.9609 0.625 20.9766 0.8125C21.0078 1 21.0156 1.19531 21 1.39844C21 1.58594 21 1.73438 21 1.84375C21 1.89062 21 1.96875 21 2.07812C21 2.17188 20.9922 2.27344 20.9766 2.38281C20.9766 2.49219 20.9766 2.60156 20.9766 2.71094C20.9766 2.80469 20.9766 2.86719 20.9766 2.89844C20.9297 3.05469 20.8516 3.28906 20.7422 3.60156C20.6484 3.91406 20.5391 4.27344 20.4141 4.67969C20.2891 5.07031 20.1562 5.48438 20.0156 5.92188C19.8906 6.35938 19.7656 6.78125 19.6406 7.1875C19.5312 7.59375 19.4297 7.95312 19.3359 8.26562C19.2422 8.57812 19.1797 8.8125 19.1484 8.96875C19.1328 9.04688 19.1094 9.17188 19.0781 9.34375C19.0469 9.51562 19.0156 9.70312 18.9844 9.90625C18.9531 10.0938 18.9219 10.2734 18.8906 10.4453C18.8594 10.6172 18.8438 10.7344 18.8438 10.7969C18.9844 10.8281 19.125 10.875 19.2656 10.9375C19.4062 11 19.4766 11.1016 19.4766 11.2422C19.4766 11.3984 19.4141 11.5234 19.2891 11.6172C19.1797 11.7109 19.0469 11.7969 18.8906 11.875C18.7344 11.9531 18.5859 12.0469 18.4453 12.1562C18.3203 12.2656 18.25 12.4219 18.2344 12.625C18.2031 12.8125 18.1484 13.1562 18.0703 13.6562C17.9922 14.1406 17.8984 14.6641 17.7891 15.2266C17.6953 15.7734 17.6016 16.2891 17.5078 16.7734C17.4297 17.2578 17.3672 17.5938 17.3203 17.7812C17.3047 17.8281 17.2734 17.9141 17.2266 18.0391C17.1797 18.1641 17.125 18.2891 17.0625 18.4141C17 18.5391 16.9375 18.6562 16.875 18.7656C16.8125 18.875 16.7656 18.9531 16.7344 19C16.3594 18.9219 16.0547 18.8281 15.8203 18.7188C15.5859 18.5938 15.4688 18.3359 15.4688 17.9453ZM15.0703 8.94531C14.8828 8.94531 14.6172 9.07812 14.2734 9.34375C13.9453 9.60938 13.6172 9.92188 13.2891 10.2812C12.9609 10.625 12.6719 10.9766 12.4219 11.3359C12.1719 11.6797 12.0469 11.9375 12.0469 12.1094C12.1406 12.1094 12.3203 12.1094 12.5859 12.1094C12.8672 12.0938 13.1562 12.0859 13.4531 12.0859C13.7656 12.0703 14.0547 12.0547 14.3203 12.0391C14.6016 12.0234 14.7969 12.0156 14.9062 12.0156C14.9688 12.0156 15.0625 12 15.1875 11.9688C15.3281 11.9375 15.4609 11.9062 15.5859 11.875C15.7109 11.8438 15.8203 11.8125 15.9141 11.7812C16.0234 11.75 16.0859 11.7266 16.1016 11.7109C16.1172 11.7109 16.125 11.6641 16.125 11.5703C16.125 11.4609 16.125 11.375 16.125 11.3125C16.125 11.1875 16.1016 10.9922 16.0547 10.7266C16.0234 10.4609 15.9609 10.1953 15.8672 9.92969C15.7891 9.66406 15.6797 9.4375 15.5391 9.25C15.4141 9.04688 15.2578 8.94531 15.0703 8.94531ZM8.48438 8.96875C8.48438 9.1875 8.5625 9.4375 8.71875 9.71875C8.875 10 9.07031 10.2656 9.30469 10.5156C9.53906 10.7656 9.78906 10.9766 10.0547 11.1484C10.3203 11.3203 10.5703 11.4062 10.8047 11.4062C11.0234 11.4062 11.2812 11.2734 11.5781 11.0078C11.875 10.7422 12.1562 10.4375 12.4219 10.0938C12.7031 9.73438 12.9375 9.39062 13.125 9.0625C13.3125 8.73438 13.4062 8.50781 13.4062 8.38281C13.4062 8.11719 13.3125 7.92188 13.125 7.79688C12.9531 7.65625 12.7422 7.5625 12.4922 7.51562C12.2578 7.45312 12.0078 7.42188 11.7422 7.42188C11.4766 7.42188 11.2578 7.42188 11.0859 7.42188C10.8672 7.42188 10.6016 7.44531 10.2891 7.49219C9.99219 7.52344 9.71094 7.59375 9.44531 7.70312C9.17969 7.8125 8.95312 7.96875 8.76562 8.17188C8.57812 8.375 8.48438 8.64062 8.48438 8.96875ZM15.5156 7.77344C15.8594 8.17969 16.1797 8.61719 16.4766 9.08594C16.7734 9.55469 17.0547 10.0312 17.3203 10.5156L19.4062 3.01562L15.5156 7.77344ZM19.3125 26.0781C19.8125 25.2656 20.3906 24.5391 21.0469 23.8984C21.7031 23.2734 22.375 22.6797 23.0625 22.1172C23.7656 21.5547 24.4609 21.0078 25.1484 20.4766C25.8359 19.9453 26.4688 19.375 27.0469 18.7656C27.6406 18.1562 28.1484 17.4844 28.5703 16.75C28.9922 16 29.2812 15.1328 29.4375 14.1484C29.4375 14.1172 29.4297 14.0703 29.4141 14.0078C29.4141 13.9297 29.4141 13.875 29.4141 13.8438C29.0547 14.2656 28.6172 14.7422 28.1016 15.2734C27.6016 15.8047 27.0547 16.3047 26.4609 16.7734C25.8828 17.2422 25.2734 17.6328 24.6328 17.9453C23.9922 18.2578 23.3672 18.4141 22.7578 18.4141C22.6016 18.4141 22.3984 18.4062 22.1484 18.3906C21.9141 18.3594 21.6797 18.3047 21.4453 18.2266C21.2109 18.1484 21.0078 18.0391 20.8359 17.8984C20.6641 17.7578 20.5781 17.5703 20.5781 17.3359C20.5781 17.1328 20.6328 16.8203 20.7422 16.3984C20.8516 15.9766 21 15.5078 21.1875 14.9922C21.375 14.4766 21.5859 13.9531 21.8203 13.4219C22.0547 12.8906 22.3047 12.4062 22.5703 11.9688C22.8359 11.5312 23.0938 11.1719 23.3438 10.8906C23.6094 10.6094 23.8516 10.4688 24.0703 10.4688C24.2891 10.4688 24.4766 10.5156 24.6328 10.6094C24.7891 10.7031 24.8672 10.8594 24.8672 11.0781C24.8672 11.4688 24.7266 11.8594 24.4453 12.25C24.1641 12.6406 23.8594 13.0625 23.5312 13.5156C23.2031 13.9531 22.8984 14.4297 22.6172 14.9453C22.3359 15.4609 22.1953 16.0469 22.1953 16.7031C23.2266 16.7031 24.1562 16.4922 24.9844 16.0703C25.8125 15.6328 26.5625 15.0938 27.2344 14.4531C27.9062 13.8125 28.5 13.1172 29.0156 12.3672C29.5312 11.6172 29.9844 10.9219 30.375 10.2812C30.7812 9.64062 31.125 9.10938 31.4062 8.6875C31.7031 8.25 31.9531 8.03125 32.1562 8.03125C32.4531 8.03125 32.625 8.125 32.6719 8.3125C32.7344 8.48438 32.7656 8.70312 32.7656 8.96875C32.625 9.45312 32.4297 10.0234 32.1797 10.6797C31.9297 11.3203 31.6719 12 31.4062 12.7188C31.1562 13.4219 30.9219 14.125 30.7031 14.8281C30.5 15.5312 30.3672 16.1719 30.3047 16.75C30.3047 16.7656 30.3047 16.7891 30.3047 16.8203C30.3203 16.8516 30.3281 16.875 30.3281 16.8906C30.6094 16.7969 30.875 16.6328 31.125 16.3984C31.375 16.1641 31.6172 15.9297 31.8516 15.6953C32.1016 15.4453 32.3516 15.2266 32.6016 15.0391C32.8516 14.8359 33.1094 14.7344 33.375 14.7344C33.3906 14.7344 33.4453 14.8438 33.5391 15.0625C33.6484 15.2812 33.6484 15.5469 33.5391 15.8594C33.3984 15.9688 33.1406 16.1562 32.7656 16.4219C32.4062 16.6875 32.0234 16.9688 31.6172 17.2656C31.2109 17.5469 30.8281 17.8281 30.4688 18.1094C30.1094 18.375 29.8594 18.5781 29.7188 18.7188C29.5 18.9375 29.2734 19.25 29.0391 19.6562C28.8047 20.0625 28.5703 20.5156 28.3359 21.0156C28.1016 21.5312 27.8672 22.0703 27.6328 22.6328C27.4141 23.1953 27.1953 23.7422 26.9766 24.2734C26.7578 24.8203 26.5391 25.3203 26.3203 25.7734C26.1172 26.2422 25.9297 26.625 25.7578 26.9219C25.6797 27.0469 25.5156 27.2891 25.2656 27.6484C25.0312 28.0234 24.7656 28.4219 24.4688 28.8438C24.1875 29.2656 23.9062 29.6641 23.625 30.0391C23.3594 30.4297 23.1562 30.7031 23.0156 30.8594C22.9531 30.9375 22.7812 31.1172 22.5 31.3984C22.2188 31.6953 21.8984 32.0156 21.5391 32.3594C21.1953 32.7188 20.8516 33.0703 20.5078 33.4141C20.1484 33.7578 19.875 34.0156 19.6875 34.1875C19.5 34.2969 19.25 34.4297 18.9375 34.5859C18.625 34.7578 18.3047 34.8984 17.9766 35.0078C17.6328 35.1172 17.3047 35.1875 16.9922 35.2188C16.6641 35.25 16.3984 35.1797 16.1953 35.0078C15.9922 34.8516 15.875 34.5781 15.8438 34.1875C15.7969 33.8125 15.8828 33.2734 16.1016 32.5703C16.3047 31.8828 16.6641 31.0078 17.1797 29.9453C17.6953 28.8828 18.4062 27.5938 19.3125 26.0781ZM26.6719 21.0391C26.6406 21.0391 26.5859 21.0469 26.5078 21.0625C26.4453 21.0938 26.3984 21.1172 26.3672 21.1328C26.3359 21.1641 26.2656 21.2188 26.1562 21.2969C26.0469 21.375 25.9219 21.4609 25.7812 21.5547C25.6562 21.6484 25.5312 21.7422 25.4062 21.8359C25.2969 21.9297 25.2188 22 25.1719 22.0469C24.7344 22.3594 24.2344 22.7969 23.6719 23.3594C23.1094 23.9375 22.5234 24.5703 21.9141 25.2578C21.3203 25.9609 20.7344 26.6953 20.1562 27.4609C19.5781 28.2422 19.0625 28.9844 18.6094 29.6875C18.1406 30.4062 17.7656 31.0625 17.4844 31.6562C17.2031 32.25 17.0547 32.7266 17.0391 33.0859C17.0234 33.4453 17.1719 33.6562 17.4844 33.7188C17.7969 33.7812 18.3281 33.6328 19.0781 33.2734C19.2344 33.1328 19.4609 32.9219 19.7578 32.6406C20.0391 32.375 20.3203 32.0938 20.6016 31.7969C20.8984 31.5156 21.1641 31.25 21.3984 31C21.6328 30.7656 21.7734 30.6172 21.8203 30.5547C21.8984 30.4453 22.0234 30.2734 22.1953 30.0391C22.3672 29.8047 22.5547 29.5391 22.7578 29.2422C22.9609 28.9453 23.1719 28.6328 23.3906 28.3047C23.6094 27.9766 23.8125 27.6562 24 27.3438C24.2031 27.0469 24.375 26.7812 24.5156 26.5469C24.6719 26.3125 24.7812 26.1328 24.8438 26.0078C24.9844 25.7578 25.1562 25.3984 25.3594 24.9297C25.5781 24.4766 25.7812 24 25.9688 23.5C26.1562 23.0156 26.3203 22.5469 26.4609 22.0938C26.6016 21.6406 26.6719 21.2891 26.6719 21.0391ZM35.0625 19.0234C34.6406 19.0078 34.3047 18.9062 34.0547 18.7188C33.8203 18.5156 33.6562 18.2734 33.5625 17.9922C33.4688 17.6953 33.4219 17.3672 33.4219 17.0078C33.4375 16.6484 33.4766 16.2969 33.5391 15.9531C34.3516 13.4844 35.1328 11.3984 35.8828 9.69531C36.6328 7.97656 37.3438 6.57812 38.0156 5.5C38.6875 4.40625 39.3203 3.58594 39.9141 3.03906C40.5078 2.47656 41.0547 2.10938 41.5547 1.9375C42.0703 1.76562 42.5312 1.75 42.9375 1.89062C43.3594 2.01562 43.7344 2.21875 44.0625 2.5C44.3906 2.78125 44.6641 3.10156 44.8828 3.46094C45.1172 3.80469 45.2969 4.10938 45.4219 4.375C45.3594 5.9375 45.0625 7.48438 44.5312 9.01562C44 10.5469 43.2734 11.9688 42.3516 13.2812C41.4453 14.5938 40.3672 15.75 39.1172 16.75C37.8828 17.75 36.5312 18.5078 35.0625 19.0234ZM41.1328 4.11719C40.7891 4.19531 40.3984 4.51562 39.9609 5.07812C39.5391 5.64062 39.1016 6.34375 38.6484 7.1875C38.2109 8.03125 37.7734 8.96875 37.3359 10C36.8984 11.0156 36.5 12.0078 36.1406 12.9766C35.7812 13.9453 35.4688 14.8438 35.2031 15.6719C34.9375 16.5 34.7578 17.1406 34.6641 17.5938C35.2422 17.5938 35.875 17.4219 36.5625 17.0781C37.2656 16.7344 37.9297 16.3125 38.5547 15.8125C39.1797 15.2969 39.7266 14.75 40.1953 14.1719C40.6641 13.5938 40.9766 13.0781 41.1328 12.625V12.5547C41.1328 12.5234 41.1328 12.5078 41.1328 12.5078C41.1484 12.4922 41.1562 12.4766 41.1562 12.4609C41.1562 12.4453 41.1484 12.4297 41.1328 12.4141C41.1328 12.3984 41.1328 12.3828 41.1328 12.3672V12.3203C40.7891 11.7109 40.5234 11.0547 40.3359 10.3516C40.1641 9.64844 40.0781 8.9375 40.0781 8.21875C40.0781 7.5 40.1641 6.78906 40.3359 6.08594C40.5078 5.38281 40.7734 4.72656 41.1328 4.11719ZM43.875 3.46094C43.0312 3.71094 42.3984 4.14844 41.9766 4.77344C41.5703 5.38281 41.3125 6.07812 41.2031 6.85938C41.0938 7.625 41.1094 8.42188 41.25 9.25C41.3906 10.0625 41.6016 10.7891 41.8828 11.4297C43.5547 9.60156 44.4297 7.41406 44.5078 4.86719C44.5078 4.72656 44.5078 4.57812 44.5078 4.42188C44.5234 4.26562 44.5156 4.125 44.4844 4C44.4688 3.85938 44.4141 3.74219 44.3203 3.64844C44.2266 3.53906 44.0781 3.47656 43.875 3.46094Z" fill="white"/>
</svg>
